<svg width="161" height="30" viewBox="0 0 161 30" fill="none" xmlns="http://www.w3.org/2000/svg">
    <path d="M45.056 13.112C42.304 16.728 39.456 20.296 36.512 23.816L33.968 21.608C34.688 17.272 35.392 13.872 36.08 11.408C34.352 14.16 32.808 16.92 31.448 19.688C30.904 20.776 30.32 21.992 29.696 23.336L27.128 20.936C28.616 17.928 29.864 15.6 30.872 13.952C32.632 11.104 34.48 8.416 36.416 5.888L39.944 8.984C39 12.024 38.296 14.96 37.832 17.792C40.376 14.704 43.136 11.016 46.112 6.728L49.544 9.68C48.584 12.784 47.872 14.936 47.408 16.136C46.96 17.32 46.576 18.312 46.256 19.112C45.68 20.552 44.904 22.376 43.928 24.584L41.072 22.256C42.4 19.568 43.336 17.536 43.88 16.16C44.424 14.784 44.816 13.768 45.056 13.112ZM55.199 18.368C54.447 18.368 53.855 18.312 53.423 18.2C53.167 18.824 53.007 19.6 52.943 20.528C55.695 20.368 58.351 19.752 60.911 18.68C61.775 18.328 62.607 17.912 63.407 17.432L63.911 19.856C62.423 20.8 60.663 21.632 58.631 22.352C56.471 23.12 54.431 23.552 52.511 23.648L49.535 20.888C49.535 18.68 50.135 16.664 51.335 14.84C52.199 13.576 53.175 12.576 54.263 11.84C55.367 11.104 56.423 10.576 57.431 10.256L61.487 13.616C61.087 15.28 60.327 16.488 59.207 17.24C58.087 17.992 56.751 18.368 55.199 18.368ZM54.431 16.04C55.359 16.04 56.167 15.784 56.855 15.272C57.655 14.664 58.055 13.816 58.055 12.728C56.439 13.608 55.231 14.712 54.431 16.04ZM69.8171 21.488C68.5531 22.48 67.0971 23.2 65.4491 23.648L62.4731 20.888C62.4731 19.624 62.6651 18.384 63.0491 17.168C63.4331 15.952 64.0011 14.856 64.7531 13.88C65.5051 12.904 66.4331 12.096 67.5371 11.456C68.6571 10.8 69.9451 10.408 71.4011 10.28L72.7211 12.296C73.9691 9.88 75.2811 7.736 76.6571 5.864L78.9851 7.88C77.4011 9.896 75.7611 12.76 74.0651 16.472C73.5531 17.592 73.0971 18.688 72.6971 19.76C74.4091 19.248 76.2011 18.472 78.0731 17.432L78.6011 19.856C77.5131 20.672 75.7531 21.672 73.3211 22.856C72.6331 23.176 72.0811 23.408 71.6651 23.552L69.8171 21.488ZM65.8331 20.192C67.5451 19.728 69.1051 18.592 70.5131 16.784C70.9291 15.872 71.2411 14.736 71.4491 13.376C69.8011 13.536 68.4491 14.264 67.3931 15.56C66.3531 16.84 65.8331 18.384 65.8331 20.192ZM82.8089 16.856C81.0329 19.128 79.6329 21.408 78.6089 23.696L75.9929 21.272C77.0329 19.32 78.4009 17.28 80.0969 15.152L78.6569 14.336L80.7209 11.744L82.2809 12.608C84.2329 10.528 86.1209 8.8 87.9449 7.424L89.7209 9.032C89.9609 8.04 90.1529 7.064 90.2969 6.104L93.2969 8.696C92.3529 13.496 90.4409 18.64 87.5609 24.128L84.8249 21.632C85.3369 20.704 85.7049 20.024 85.9289 19.592C85.0489 18.616 84.0089 17.704 82.8089 16.856ZM84.8969 14.408C85.7609 15.064 86.5529 15.776 87.2729 16.544C88.2489 14.112 88.9689 11.976 89.4329 10.136C88.0249 11.24 86.5129 12.664 84.8969 14.408ZM92.9021 20.888C93.5901 18.408 94.8141 15.6 96.5741 12.464C97.7421 10.384 99.0541 8.536 100.51 6.92C101.246 6.104 102.006 5.416 102.79 4.856L106.846 7.712C106.302 12.08 104.318 15.16 100.894 16.952C99.7901 17.528 98.5581 17.984 97.1981 18.32C96.8141 19.264 96.5181 20.072 96.3101 20.744C98.2941 20.472 99.8381 20.168 100.942 19.832C103.102 19.192 104.902 18.392 106.342 17.432L106.846 19.856C104.494 21.488 101.822 22.624 98.8301 23.264C97.8381 23.472 96.8541 23.6 95.8781 23.648L92.9021 20.888ZM98.5901 15.32C100.046 14.632 101.206 13.64 102.07 12.344C102.934 11.048 103.51 9.528 103.798 7.784C102.534 8.92 101.182 10.728 99.7421 13.208C99.3261 13.912 98.9421 14.616 98.5901 15.32ZM112.203 12.392C113.691 12.232 114.787 12.056 115.491 11.864L116.043 14.456C114.635 14.808 112.843 15.016 110.667 15.08C109.691 17 108.963 18.744 108.483 20.312C109.779 20.088 111.163 19.768 112.635 19.352C114.107 18.92 115.587 18.28 117.075 17.432L117.579 19.856C116.123 20.864 114.459 21.728 112.587 22.448C110.747 23.152 109.115 23.552 107.691 23.648L104.715 20.888C105.659 17.752 107.267 14.448 109.539 10.976C110.243 9.888 110.995 8.84 111.795 7.832L113.931 9.8C113.307 10.664 112.731 11.528 112.203 12.392ZM121.473 14.624C122.961 13.488 124.673 12.408 126.609 11.384L129.513 13.664C128.985 15.936 128.057 17.984 126.729 19.808C128.329 19.264 130.145 18.472 132.177 17.432L132.681 19.856C132.025 20.288 131.025 20.84 129.681 21.512C127.377 22.648 125.785 23.36 124.905 23.648L121.929 21.536C122.889 20.384 123.689 19.248 124.329 18.128C124.985 16.992 125.409 16 125.601 15.152C123.505 16.192 122.121 16.928 121.449 17.36C120.793 17.792 120.201 18.192 119.673 18.56C118.889 20.496 118.289 22.192 117.873 23.648L115.017 21.8C115.545 19.992 116.705 17.288 118.497 13.688C120.129 10.392 121.593 7.784 122.889 5.864L125.337 7.712C123.993 9.888 122.705 12.192 121.473 14.624ZM136.879 18.368C136.127 18.368 135.535 18.312 135.103 18.2C134.847 18.824 134.687 19.6 134.623 20.528C137.375 20.368 140.031 19.752 142.591 18.68C143.455 18.328 144.287 17.912 145.087 17.432L145.591 19.856C144.103 20.8 142.343 21.632 140.311 22.352C138.151 23.12 136.111 23.552 134.191 23.648L131.215 20.888C131.215 18.68 131.815 16.664 133.015 14.84C133.879 13.576 134.855 12.576 135.943 11.84C137.047 11.104 138.103 10.576 139.111 10.256L143.167 13.616C142.767 15.28 142.007 16.488 140.887 17.24C139.767 17.992 138.431 18.368 136.879 18.368ZM136.111 16.04C137.039 16.04 137.847 15.784 138.535 15.272C139.335 14.664 139.735 13.816 139.735 12.728C138.119 13.608 136.911 14.712 136.111 16.04ZM151.497 21.488C150.233 22.48 148.777 23.2 147.129 23.648L144.153 20.888C144.153 19.624 144.345 18.384 144.729 17.168C145.113 15.952 145.681 14.856 146.433 13.88C147.185 12.904 148.113 12.096 149.217 11.456C150.337 10.8 151.625 10.408 153.081 10.28L154.665 12.704C154.857 12.4 155.265 11.872 155.889 11.12L158.241 13.136C156.657 15.2 155.345 17.408 154.305 19.76L154.233 19.808C155.161 19.568 156.249 19.16 157.497 18.584C158.745 17.992 159.537 17.608 159.873 17.432L160.401 19.856C159.457 20.544 157.889 21.432 155.697 22.52C154.833 22.952 154.049 23.296 153.345 23.552L151.497 21.488ZM147.513 20.192C149.225 19.728 150.785 18.592 152.193 16.784C152.609 15.872 152.921 14.736 153.129 13.376C151.481 13.536 150.129 14.264 149.073 15.56C148.033 16.84 147.513 18.384 147.513 20.192Z" fill="#4936B9"/>
    <path d="M20.0064 7.79999H3.99355C3.56736 7.80379 3.16011 7.97664 2.86129 8.28056C2.56248 8.58447 2.39654 8.99459 2.39995 9.42079V18.3488C2.39854 18.6483 2.48 18.9424 2.6353 19.1985C2.7906 19.4546 3.01371 19.6628 3.27995 19.8L10.928 24.344C11.2597 24.5131 11.6268 24.6013 11.9992 24.6013C12.3715 24.6013 12.7386 24.5131 13.0704 24.344L20.7184 19.8C20.9847 19.6631 21.2079 19.4553 21.3635 19.1995C21.5191 18.9437 21.6009 18.6498 21.6 18.3504V9.42239C21.6019 9.21122 21.5621 9.00175 21.4831 8.80593C21.404 8.61011 21.2872 8.43178 21.1392 8.28112C20.9912 8.13047 20.815 8.01044 20.6206 7.92788C20.4263 7.84533 20.2175 7.80187 20.0064 7.79999ZM16.8 16.6H13.6V19.8H10.4V16.6H7.19995V13.4H10.4V10.2H13.6V13.4H16.8V16.6Z" fill="#276F36"/>
    
</svg>